#!OML:ASF E:\Style4\Style4.ASF
:FULLY-SPECIFIED
:DEGREES
3613
root -0.356486 17.7039 -2.06589 8.61381 9.79056 -0.0826285
lowerback 16.8131 -0.204691 -4.91683
upperback 8.94969 -0.953905 -3.40295
thorax 0.161244 -0.531345 -0.651705
lowerneck -1.61982 1.27556 -3.79929
upperneck 6.00714 1.26472 10.7019
head 2.14175 0.807319 4.27841
rclavicle -2.70347e-014 -2.54444e-014
rhumerus 2.16591 65.4659 -15.8543
rradius 104.928
rwrist -72.6251
rhand 13.0875 1.25826
rfingers 7.12502
rthumb 38.0485 -24.5278
lclavicle -2.70347e-014 -2.54444e-014
lhumerus -3.53821 -46.8983 78.6371
lradius 66.2167
lwrist 24.0485
lhand 5.47716 24.9477
lfingers 7.12502
lthumb 30.825 52.3824
rfemur -27.3996 -4.77441 22.283
rtibia 38.9736
rfoot -17.9749 -18.2747
rtoes -8.8819
lfemur -28.5335 -5.60905 -16.5223
ltibia 36.3218
lfoot -15.8764 4.94038
ltoes -13.8472
3614
root -0.361235 17.7273 -2.05909 8.7449 9.93965 -0.0613992
lowerback 16.6858 -0.12932 -4.71315
upperback 8.89948 -0.820676 -3.38881
thorax 0.165553 -0.458179 -0.772537
lowerneck -1.46558 1.1117 -3.70495
upperneck 5.79505 1.05768 10.6733
head 2.05996 0.697764 4.23828
rclavicle -2.46493e-014 -1.59028e-015
rhumerus 4.36489 64.6933 -13.7346
rradius 104.86
rwrist -72.4338
rhand 13.8449 1.30255
rfingers 7.12502
rthumb 38.7633 -24.2849
lclavicle -2.46493e-014 -1.59028e-015
lhumerus -5.1904 -47.8549 79.1576
lradius 67.5963
lwrist 23.9213
lhand 5.27685 24.9399
lfingers 7.12502
lthumb 30.634 52.4105
rfemur -27.2629 -4.78254 22.2765
rtibia 38.5843
rfoot -17.8279 -18.3415
rtoes -9.08608
lfemur -28.3277 -5.766 -16.4952
ltibia 35.7037
lfoot -15.6369 5.06056
ltoes -14.3024
3615
root -0.365459 17.7474 -2.05443 8.89793 10.0717 0.10959
lowerback 16.5606 -0.015479 -4.60519
upperback 8.85859 -0.650962 -3.41723
thorax 0.181105 -0.369019 -0.890227
lowerneck -1.37902 0.903337 -3.58488
upperneck 5.64587 0.787534 10.6115
head 2.01653 0.559671 4.1832
rclavicle 9.54166e-015 1.35174e-014
rhumerus 6.2677 63.9203 -11.896
rradius 104.82
rwrist -72.2722
rhand 14.1772 1.42853
rfingers 7.12502
rthumb 39.0766 -24.0695
lclavicle 9.54166e-015 1.35174e-014
lhumerus -6.7364 -48.9356 79.6224
lradius 68.9277
lwrist 23.9711
lhand 4.87246 25.1552
lfingers 7.12502
lthumb 30.2483 52.6972
rfemur -27.1127 -4.83645 22.0936
rtibia 38.2652
rfoot -18.1139 -18.032
rtoes -7.35311
lfemur -28.1325 -5.87558 -16.6531
ltibia 35.1205
lfoot -15.416 5.06571
ltoes -13.765
3616
root -0.371692 17.7642 -2.05193 9.03003 10.2088 0.300126
lowerback 16.5195 0.0973713 -4.53794
upperback 8.80854 -0.494336 -3.43211
thorax 0.145019 -0.287156 -0.968213
lowerneck -1.39694 0.681858 -3.52025
upperneck 5.64565 0.492074 10.5215
head 2.04331 0.413034 4.13342
rclavicle -1.74931e-014 3.65764e-014
rhumerus 8.29546 63.2086 -10.001
rradius 104.769
rwrist -72.3482
rhand 14.2283 1.49604
rfingers 7.12502
rthumb 39.1248 -23.9881
lclavicle -1.74931e-014 3.65764e-014
lhumerus -8.38507 -49.8857 80.1556
lradius 70.2583
lwrist 23.9602
lhand 4.40171 25.3827
lfingers 7.12502
lthumb 29.7991 53.0061
rfemur -26.9843 -4.87856 21.9045
rtibia 37.9868
rfoot -18.3162 -17.8368
rtoes -5.76159
lfemur -27.9751 -5.97786 -16.8213
ltibia 34.6094
lfoot -15.2748 5.02632
ltoes -13.2485
3617
root -0.37846 17.7772 -2.05037 9.12017 10.3196 0.383359
lowerback 16.4927 0.199268 -4.38314
upperback 8.79248 -0.338482 -3.40969
thorax 0.137245 -0.204504 -1.05617
lowerneck -1.50242 0.475427 -3.54644
upperneck 5.6782 0.216555 10.4622
head 2.09572 0.277934 4.11462
rclavicle -6.36111e-015 -9.54166e-015
rhumerus 10.3544 62.4094 -8.18326
rradius 104.598
rwrist -72.3948
rhand 14.1606 1.53055
rfingers 7.12502
rthumb 39.0609 -23.972
lclavicle -6.36111e-015 -9.54166e-015
lhumerus -10.0367 -50.5799 80.6947
lradius 71.5757
lwrist 23.7614
lhand 3.95566 25.6562
lfingers 7.12502
lthumb 29.3734 53.3551
rfemur -26.9122 -4.84913 21.8391
rtibia 37.718
rfoot -18.073 -18.0433
rtoes -6.42469
lfemur -27.8607 -6.03469 -16.871
ltibia 34.1938
lfoot -15.1119 5.00551
ltoes -13.2441
3618
root -0.384322 17.7874 -2.04771 9.19055 10.3989 0.393341
lowerback 16.4643 0.334827 -4.12383
upperback 8.7798 -0.124163 -3.36546
thorax 0.132921 -0.0900787 -1.1892
lowerneck -1.61279 0.25039 -3.64703
upperneck 5.70951 -0.0844932 10.473
head 2.1519 0.130191 4.13484
rclavicle 1.51076e-014 -6.36111e-015
rhumerus 12.0672 61.5878 -6.74102
rradius 104.339
rwrist -72.3327
rhand 13.9048 1.69287
rfingers 7.12502
rthumb 38.8197 -23.8786
lclavicle 1.51076e-014 -6.36111e-015
lhumerus -11.5837 -51.3259 81.2448
lradius 72.7681
lwrist 23.5015
lhand 3.60516 25.798
lfingers 7.12502
lthumb 29.0387 53.5551
rfemur -26.8562 -4.78417 21.8529
rtibia 37.4662
rfoot -17.6259 -18.3864
rtoes -7.88819
lfemur -27.7724 -6.03094 -16.8625
ltibia 33.8803
lfoot -14.896 5.02304
ltoes -13.4793
3619
root -0.388589 17.7931 -2.04669 9.27154 10.4618 0.439839
lowerback 16.43 0.495696 -3.87873
upperback 8.74204 0.119701 -3.33558
thorax 0.106804 0.039237 -1.33404
lowerneck -1.60106 -0.000809922 -3.67053
upperneck 5.70494 -0.419856 10.4491
head 2.17569 -0.0375845 4.12395
rclavicle 3.18055e-014 3.97569e-015
rhumerus 13.5335 60.7776 -5.57033
rradius 103.992
rwrist -72.3195
rhand 13.8719 1.92072
rfingers 7.12502
rthumb 38.7887 -23.6595
lclavicle 3.18055e-014 3.97569e-015
lhumerus -13.1675 -52.1366 81.8468
lradius 73.894
lwrist 23.2873
lhand 3.02929 25.7607
lfingers 7.12502
lthumb 28.4885 53.6113
rfemur -26.8835 -4.73071 21.8188
rtibia 37.2922
rfoot -17.2076 -18.7832
rtoes -9.96467
lfemur -27.7346 -6.07652 -16.8961
ltibia 33.6522
lfoot -14.7393 5.07551
ltoes -13.6419
3620
root -0.392909 17.7961 -2.04861 9.35972 10.5089 0.579322
lowerback 16.401 0.649149 -3.75917
upperback 8.71635 0.336993 -3.31637
thorax 0.0933379 0.15135 -1.41545
lowerneck -1.57341 -0.245932 -3.61644
upperneck 5.67187 -0.74359 10.3448
head 2.18407 -0.20075 4.0679
rclavicle 1.90833e-014 -7.15625e-015
rhumerus 15.1461 59.9784 -4.38645
rradius 103.56
rwrist -72.3378
rhand 13.741 2.14753
rfingers 7.12502
rthumb 38.6653 -23.4676
lclavicle 1.90833e-014 -7.15625e-015
lhumerus -14.8078 -52.7448 82.4521
lradius 75.0519
lwrist 22.9154
lhand 2.54292 25.6092
lfingers 7.12502
lthumb 28.0237 53.5367
rfemur -26.973 -4.71847 21.6886
rtibia 37.2525
rfoot -17.367 -18.8931
rtoes -9.48226
lfemur -27.7406 -6.11925 -17.0265
ltibia 33.4963
lfoot -14.7232 5.09431
ltoes -13.4869
